<svg id="Layer_2" data-name="Layer 2" xmlns="http://www.w3.org/2000/svg" viewBox="0 0 527.88 460.78"><defs><style>.cls-1{fill:none;stroke:#231f20;stroke-miterlimit:10;stroke-width:5px;}</style></defs><path class="cls-1" d="M89.18,581.85c-28.84-7.15-37.37,36-18.69,52.74Q293.57,711,461.7,615.91c20.33-23.07,9.27-56.59-14.28-47.25C310.36,623.17,192.87,622.11,89.18,581.85Z" transform="translate(-58.08 -210.34)"/><path class="cls-1" d="M90.94,582.53c26.63-100.69,31-207.71,19.11-319.37,91.25,25.49,195.41,18.34,306.6-6.59-1.31,119.67,10.86,221.11,30.77,312.09C324,621,204.72,630.89,90.94,582.53Z" transform="translate(-58.08 -210.34)"/><path class="cls-1" d="M110.05,263.16C148,284,402.36,277.25,416.65,256.57,384,223.4,330.64,209,256.21,213.71,181.4,212.7,118.3,237.34,110.05,263.16Z" transform="translate(-58.08 -210.34)"/><path class="cls-1" d="M417.25,320.35c66.76-45.94,114-47,125.77,32.92,3,85.77-43.24,112.41-114.28,109.31C425,416.61,421.18,369.08,417.25,320.35Z" transform="translate(-58.08 -210.34)"/><path class="cls-1" d="M416.58,264.28c103.44-42.06,165-23.88,166,81.3,7.54,91.68-33.21,151.37-146.89,162.77Z" transform="translate(-58.08 -210.34)"/><path class="cls-1" d="M127.64,544.48q69.23,42.25,65.93-36.13c-4.31-42.55-3-115.54,0-197.93q-32.91-22-65.93,0C135.45,383,134.48,461.69,127.64,544.48Z" transform="translate(-58.08 -210.34)"/><path class="cls-1" d="M234.23,556.57c22.52,13.08,44,14.88,63.74,0V310.42c-20.57-12.75-41.8-14.69-63.74-5.5C240.67,390.74,241,474.72,234.23,556.57Z" transform="translate(-58.08 -210.34)"/><path class="cls-1" d="M344.12,556.57c24.08,1.09,46.32-3.56,63.74-23.08C394.4,472.37,389.53,397,394.67,304.92c-20.61-9.11-41.48-7.42-62.64,5.5Z" transform="translate(-58.08 -210.34)"/></svg>