<svg id="Layer_1" data-name="Layer 1" xmlns="http://www.w3.org/2000/svg" viewBox="0 0 435.51 74.32"><defs><style>.cls-1,.cls-2{fill:#222c8c;}.cls-1{stroke:#222c8c;}.cls-1,.cls-2,.cls-3,.cls-4,.cls-5{stroke-miterlimit:10;}.cls-2{stroke:#09186d;}.cls-2,.cls-3,.cls-4{stroke-width:1.5px;}.cls-3{fill:#b02536;stroke:#7a081b;}.cls-4,.cls-6{fill:#772936;}.cls-4{stroke:#5e0a1c;}.cls-5{fill:none;stroke:#772936;stroke-width:0.84px;}.cls-6{isolation:isolate;font-size:8.45px;font-family:MyriadPro-Semibold, Myriad Pro;font-weight:600;letter-spacing:0.15em;}</style></defs><path class="cls-1" d="M55.83,17.25c-.39-.76-.9-1.7-1.68-1.81S52.5,16.34,52,17c-1.48,2-3.32,3.49-4.64,5.6-2.75,4.37-1.45,1.58-6.14,8.85-5.75,8.93-5,8.73-7.18,11.39A29.22,29.22,0,0,1,25,50,24.06,24.06,0,0,1,13.68,52.9a13.63,13.63,0,0,1-8.07-2.18,6.31,6.31,0,0,1-3-5.23,3.64,3.64,0,0,1,.71-2.34,2.13,2.13,0,0,1,1.77-.94,2,2,0,0,1,1.49.65,2.37,2.37,0,0,1,.62,1.68,2.8,2.8,0,0,1-.17,1H7c-.23.57-.75,2.46-.77,2.45s1.12-2.8.35-4A1.7,1.7,0,0,0,5,43.32a2.21,2.21,0,0,0-.89.35,5.73,5.73,0,0,0-.49,3,5.49,5.49,0,0,0,1,2.52,6.82,6.82,0,0,0,3.61,2.53,17.07,17.07,0,0,0,5.58.9,17.89,17.89,0,0,0,8.3-2A22.37,22.37,0,0,0,29,45.22a88.85,88.85,0,0,0,6.43-8.77l3.19-4.83a134.72,134.72,0,0,1,8-11A65.19,65.19,0,0,1,53,13.9a3.2,3.2,0,0,0,.16-4.36,18,18,0,0,0-3.66-2.82A19.42,19.42,0,0,0,39.2,4.1,28.73,28.73,0,0,0,25.83,7.44a31.61,31.61,0,0,0-10.7,9Q10.83,22,10.83,26.86a7.89,7.89,0,0,0,2.46,5.76,7.71,7.71,0,0,0,5.59,2.47A18,18,0,0,0,27,32.72,29.68,29.68,0,0,0,35.43,26c2.54-2.85,3.8-5.49,3.8-7.93a4.6,4.6,0,0,0-1.49-3.69A5.43,5.43,0,0,0,34,13.12q-4.8,0-9.87,4.16a39.19,39.19,0,0,0-9,11.16L15,28.29a36.62,36.62,0,0,1,8-10.38q5.47-5.19,11-5.19a5.57,5.57,0,0,1,4.21,1.54,5.33,5.33,0,0,1,1.49,3.84q0,5.37-6.07,11.42t-13.38,6A9.47,9.47,0,0,1,13.1,32.9a8.35,8.35,0,0,1-2.56-6Q10.54,21.73,15,16A33.38,33.38,0,0,1,25.66,7a27.6,27.6,0,0,1,13.22-3.3,20.5,20.5,0,0,1,10.53,2.6A16.46,16.46,0,0,1,53.93,10a2.12,2.12,0,0,0,3,.52l.13-.1a54.34,54.34,0,0,1,5.71-4.19l.06.25L59.36,9c-.64.48-1.42,1.09-2.35,1.85a3.19,3.19,0,0,0-1,3.35c.12.43.24.87.33,1.31.06.26.1.48.13.67.1.6.16,1.05.17,1.1a10.69,10.69,0,0,0,1.58,3.1,12.19,12.19,0,0,1,1.91,7.34v.17c-.11,1-.64,4.54-3.11,6.26-3.5,2.43-7.72-1-8.83-2a6.31,6.31,0,0,1-2.06-2.75,4.41,4.41,0,0,1-.38-1.56q0-2.43,2.88-4.64A9.19,9.19,0,0,1,54.14,21v.24a11.26,11.26,0,0,0-5.61,2.49q-2.46,2-2.46,4.17a3.44,3.44,0,0,0,.37,1.33c1.23,2.45,6.22,6.11,9.73,2.9,2.63-2.42,2.56-7,2.55-7.48A43.62,43.62,0,0,0,55.83,17.25Z" transform="translate(-2.11 -0.33)"/><path class="cls-1" d="M62,38.18h2.59L56.37,48.5a4.34,4.34,0,0,0-1.21,2.41,1.14,1.14,0,0,0,.34.89,1,1,0,0,0,.68.29,4.59,4.59,0,0,0,2.26-1.24c1-.83,3-2.76,6-5.77l.21.25a75.9,75.9,0,0,1-6.23,5.93,4.56,4.56,0,0,1-2.32,1.15A1.22,1.22,0,0,1,55,51.79a2.7,2.7,0,0,1-.4-1.46,8.25,8.25,0,0,1,1.2-3.7l-.12-.1c-4,3.92-6.65,5.88-8.1,5.88a1.56,1.56,0,0,1-1.41-.9,4.75,4.75,0,0,1-.52-2.34q0-4,4.69-7.48t7.89-3.47a1.48,1.48,0,0,1,1.6,1.35,1.29,1.29,0,0,1,0,.34v1Zm-2.5,1.65c0-.84-.45-1.26-1.34-1.26q-2.43,0-7.11,5.08t-4.68,7.14a1.29,1.29,0,0,0,.32.86,1.09,1.09,0,0,0,.9.41,6.36,6.36,0,0,0,2.79-1.34,32.45,32.45,0,0,0,4.77-4.22,26.87,26.87,0,0,0,3.59-4.23A5,5,0,0,0,59.49,39.83Z" transform="translate(-2.11 -0.33)"/><path class="cls-1" d="M64.83,45.33l-.21-.25,3-2.92c2.92-2.88,5-4.33,6.23-4.33,1.07,0,1.6.73,1.6,2.18s-.83,3.08-2.51,5.29l.12.14Q80.54,38,83.29,38a1.73,1.73,0,0,1,1.39.6,2,2,0,0,1,.51,1.34c0,1.36-.92,3.23-2.78,5.6l.12.07a39.75,39.75,0,0,1,4-4A22.73,22.73,0,0,1,90,39.05a5.32,5.32,0,0,1,2.42-.78,1.74,1.74,0,0,1,1.93,2,6,6,0,0,1-1.15,3.45A39,39,0,0,1,88.42,49a2.78,2.78,0,0,0-1,1.63c0,.85.45,1.27,1.35,1.27a5.38,5.38,0,0,0,3-1.24,52.24,52.24,0,0,0,5.74-5.49l.21.25a45.85,45.85,0,0,1-6.36,5.86,5.41,5.41,0,0,1-2.65,1,1.72,1.72,0,0,1-1.39-.69,2.5,2.5,0,0,1-.57-1.63,5.22,5.22,0,0,1,.83-2.68A20.54,20.54,0,0,1,91,43.46c1.72-1.61,2.59-2.84,2.59-3.68,0-.66-.38-1-1.13-1a7.33,7.33,0,0,0-3.75,1.57,30.11,30.11,0,0,0-5.3,4.91L80,49.17c-1,1.15-1.81,2.09-2.36,2.81l-3,.08,4-4.79c2.14-2.57,3.58-4.38,4.3-5.43A5,5,0,0,0,84,39.46a1.1,1.1,0,0,0-.29-.71.88.88,0,0,0-.71-.36c-.87,0-2.22.73-4,2.17A54,54,0,0,0,73.19,46l-5.52,6-2.93.08,1-1.41,3.77-4.47q3-3.52,4-4.92a4.26,4.26,0,0,0,1-2.16.68.68,0,0,0-.57-.78h-.19a5.8,5.8,0,0,0-3.07,1.61A78.58,78.58,0,0,0,64.83,45.33Z" transform="translate(-2.11 -0.33)"/><path class="cls-1" d="M97.9,45.33l-.21-.25c1.46-1.49,3-3,4.57-4.52s3.43-3.22,5.1-4.7l4-3.56c.45-.4,1.74-1.69,3.89-3.87l1.85-.1L104.7,44,103,45.89l.15.29q8.82-9,11.81-9a1.6,1.6,0,0,1,1.32.74,3,3,0,0,1,.55,1.87,6.24,6.24,0,0,1-.5,2.21,13.65,13.65,0,0,1-3.14,3.75q-4.11,3.78-4.11,5c0,.82.44,1.24,1.32,1.24q2,0,8.68-6.91l.21.25q-6.94,7.08-9,7.08a1.91,1.91,0,0,1-.63-.13,1.21,1.21,0,0,1-1.15-.45c-.18-.29-.14-.82,0-1.89A6.26,6.26,0,0,1,109,47.8a6.57,6.57,0,0,1,1-1.74c.43-.52,1.39-1.51,2.89-3l1.67-1.62a4.26,4.26,0,0,0,1.58-2.65,1.1,1.1,0,0,0-.38-.86,1.19,1.19,0,0,0-.82-.34q-2.07,0-8.24,5.55a148.15,148.15,0,0,0-14.77,16l-7.52,9.23H81.52L112,32.48l-.12-.21Q103.82,39.2,97.9,45.33Z" transform="translate(-2.11 -0.33)"/><path class="cls-1" d="M130.1,45.08l.21.25a29.59,29.59,0,0,1-6.4,5.41,10.09,10.09,0,0,1-4.61,1.67c-1.59,0-2.39-1-2.39-3q0-4,4.52-7.5c3-2.35,5.37-3.52,7.06-3.52a1.17,1.17,0,0,1,.81.32,1,1,0,0,1,.33.77c0,1.15-.94,2.36-2.84,3.63a14.78,14.78,0,0,1-6.3,2.36c-2,2.39-3,4-3,4.93a1.69,1.69,0,0,0,.52,1.18,1.65,1.65,0,0,0,1.23.54,9.74,9.74,0,0,0,4.31-1.6A31.65,31.65,0,0,0,130.1,45.08Zm-9.17.07a9.64,9.64,0,0,0,3.1-.92,11.25,11.25,0,0,0,3.71-2.37,3.94,3.94,0,0,0,1.48-2.4c0-.45-.21-.68-.64-.68a3.32,3.32,0,0,0-1.69.57,21.42,21.42,0,0,0-2.8,2.32A27.42,27.42,0,0,0,120.93,45.15Z" transform="translate(-2.11 -0.33)"/><path class="cls-1" d="M130.49,45.33l-.21-.25,4.45-4.36a17.09,17.09,0,0,0,1.49-1.58,2.15,2.15,0,0,1-.94-1.83,2,2,0,0,1,.43-1.3,1.19,1.19,0,0,1,1-.57.85.85,0,0,1,.68.39,1.62,1.62,0,0,1,0,1.92.94.94,0,0,1-.77.4,1,1,0,0,1-.66-.28v.18a.87.87,0,0,0,.4.63,1.93,1.93,0,0,0,1.19.32,5.12,5.12,0,0,0,2.44-.71l1.55,2.08a12.67,12.67,0,0,1-2.3,3.23c-1.16,1.29-2.31,2.65-3.46,4.1s-1.8,2.31-2,2.59a1.8,1.8,0,0,0-.23.82c0,.67.31,1,.93,1a7.55,7.55,0,0,0,3.46-1.58,39.43,39.43,0,0,0,6-5.4l.21.25q-6.83,7.08-9.68,7.08a1.6,1.6,0,0,1-1.34-.65,2.8,2.8,0,0,1-.48-1.71,5.6,5.6,0,0,1,.72-2.68,28.76,28.76,0,0,1,3.09-4.12,50.21,50.21,0,0,0,3.28-4.15l-.12-.25a5.81,5.81,0,0,1-2.28.53,1.87,1.87,0,0,1-.62-.1Z" transform="translate(-2.11 -0.33)"/><path class="cls-1" d="M144.24,45.33l-.21-.25,10.74-10.8.17.35a11.19,11.19,0,0,0-1.58,1.79,3,3,0,0,0-.35,1.52,17.26,17.26,0,0,0,.21,2.27,22,22,0,0,1,.2,2.81,8.19,8.19,0,0,1-1.52,4.75l2.63-2.69.21.25q-6.59,7-10.68,7a2.42,2.42,0,0,1-1.71-.68,2.37,2.37,0,0,1-.72-1.78,2.18,2.18,0,0,1,.46-1.39,1.3,1.3,0,0,1,1.06-.58.83.83,0,0,1,.66.31,1.12,1.12,0,0,1,.28.74A1.7,1.7,0,0,1,143.7,50a1.13,1.13,0,0,1-.84.47,1.52,1.52,0,0,1-.47-.1A1.44,1.44,0,0,0,143.64,52a1.7,1.7,0,0,0,.39,0q2.31,0,5.22-4.06a16.26,16.26,0,0,0,3.2-8.54,17,17,0,0,1,.38-2.66Z" transform="translate(-2.11 -0.33)"/><path class="cls-2" d="M234.69,53.28l-.13.38a29.51,29.51,0,0,1-3.52.14c-1.89,0-3.81-.14-5.7-.14-1,0-2.06.05-3.1.14V52.72l.81-.85c.38-.38.5-1.09.5-2.7V28c0-4.16-.07-4.44-1.21-4.63l-.93-.15V21.48c1.59.09,3.2.14,4.79.14,2,0,4-.14,6-.14a19,19,0,0,1,2.39.14l.15.33-.35,6.71h-.91l-.2-3.55c0-.52-1.08-.89-2.47-.89l-3.65.14V35.72a7.87,7.87,0,0,0,1.68.1h1.67c1.06,0,1.38-.24,1.43-1l.15-2.69h1c0,1.7-.07,3.36-.07,5.06s0,3.4.07,5.1h-1l-.15-2.36c-.07-1.23-.47-1.75-1.43-1.75h-1.63a11.9,11.9,0,0,0-1.68.14v12.6l3.75.14c1.16,0,2.5-.42,2.55-.8l.58-4.44h1Z" transform="translate(-2.11 -0.33)"/><path class="cls-2" d="M253.67,53.66a21.68,21.68,0,0,0-2.42.14l-3.76-12.57L244,50.72c-.1.28-.56,1.7-.91,2.93h-2.95v-1.6l.78-.14a1.35,1.35,0,0,0,.83-.85l5-12.33-2.37-7.85a46.67,46.67,0,0,0-2.17-5.81c-.33-.62-.63-.85-1-.85a1.47,1.47,0,0,0-.81.28l-.12-1.94,4.58-1.75a13.55,13.55,0,0,1,1.84,4.3l2.39,8,4.16-11.48H256v1.6l-.71.15c-.5.09-.68.37-1.21,1.7l-4.27,10.57c4.76,15.46,4,13,4,13.14.7,2.32,1,3,1.56,3.12l.63.14V53.8A20.44,20.44,0,0,0,253.67,53.66Z" transform="translate(-2.11 -0.33)"/><path class="cls-2" d="M269.65,38.58a5.31,5.31,0,0,1-1.47-.33V36.41h.91c1.59,0,2.6-2.46,2.6-6.24,0-4.2-1.06-6.33-3.15-6.33a2.42,2.42,0,0,0-1.52.42v23c0,4.16.06,4.35,1.21,4.49l1.19.14v1.89c-1.39-.09-2.77-.14-4.16-.14s-2.62,0-3.93.14V51.91l.93-.14c1.19-.19,1.21-.28,1.21-4.49V28c0-4.16-.07-4.44-1.21-4.63l-.93-.15V21.48c1.46.09,2.9.14,4.36.14s3.25-.14,4.86-.14c2.14,0,4.77,2.36,4.77,7.08C275.32,34.28,272.9,38.58,269.65,38.58Z" transform="translate(-2.11 -0.33)"/><path class="cls-2" d="M295,53.66a19.08,19.08,0,0,0-2.27.14l-5.29-16.16V36.55a2.58,2.58,0,0,0,2.19-.9,8.86,8.86,0,0,0,1.66-5.76c0-3.83-1.28-6.05-3.52-6.05a2.26,2.26,0,0,0-1.49.42v23c0,4.21,0,4.3,1.21,4.49l.93.14v1.89c-1.31-.09-2.62-.14-3.93-.14s-2.6,0-3.91.14V51.91l.94-.14c1.18-.19,1.21-.28,1.21-4.49V28c0-4.16-.08-4.44-1.21-4.63l-.94-.15V21.48c1.49.09,3,.14,4.49.14,1.66,0,3.35-.14,5-.14,3.18,0,4.79,2.36,4.79,6.94a12.24,12.24,0,0,1-1,5.2,8,8,0,0,1-2.67,3.22l4.56,13c.55,1.56.85,1.79,1.76,2.12v1.89A22.8,22.8,0,0,0,295,53.66Z" transform="translate(-2.11 -0.33)"/><path class="cls-2" d="M315.91,53.28l-.12.38a29.68,29.68,0,0,1-3.53.14c-1.89,0-3.8-.14-5.69-.14-1,0-2.07.05-3.1.14V52.72l.8-.85c.38-.38.51-1.09.51-2.7V28c0-4.16-.08-4.44-1.21-4.63l-.93-.15V21.48c1.58.09,3.2.14,4.78.14,2,0,4-.14,6-.14a19,19,0,0,1,2.39.14L316,22l-.35,6.71h-.91l-.2-3.55c0-.52-1.08-.89-2.47-.89l-3.65.14V35.72a8,8,0,0,0,1.69.1h1.66c1.06,0,1.39-.24,1.44-1l.15-2.69h1c-.05,1.7-.08,3.36-.08,5.06s0,3.4.08,5.1h-1l-.15-2.36c-.08-1.23-.48-1.75-1.44-1.75h-1.66a11.91,11.91,0,0,0-1.69.14v12.6l3.75.14c1.16,0,2.5-.42,2.55-.8l.58-4.44h1Z" transform="translate(-2.11 -0.33)"/><path class="cls-2" d="M327.58,54.47a7.58,7.58,0,0,1-5.24-2.18,69.88,69.88,0,0,0,.38-8.18h1l.17,4.16c.81,2.23,2.42,3.64,4.14,3.64,2.16,0,3.78-2.6,3.78-6.09,0-2.27-.68-3.74-2.09-4.54l-3.53-2c-2.4-1.32-3.68-4.3-3.68-8.31,0-6.39,2.47-10.17,6.68-10.17a7.46,7.46,0,0,1,4.64,1.62L334,23a47.26,47.26,0,0,0-.32,6.73h-1l-.15-3.88c-1-1.75-2.09-2.6-3.43-2.6-2,0-3.38,2.23-3.38,5.53,0,2.41.81,3.83,2.67,4.78L331.22,35c2.49,1.22,3.8,4.06,3.8,8.31C335,50.12,332.09,54.47,327.58,54.47Z" transform="translate(-2.11 -0.33)"/><path class="cls-2" d="M346.83,54.47a7.58,7.58,0,0,1-5.24-2.18,72.12,72.12,0,0,0,.37-8.18h1l.18,4.16c.8,2.23,2.42,3.64,4.13,3.64,2.17,0,3.78-2.6,3.78-6.09,0-2.27-.68-3.74-2.09-4.54l-3.53-2C343,38,341.75,35,341.75,31c0-6.39,2.47-10.17,6.68-10.17a7.51,7.51,0,0,1,4.66,1.61l.13.57a44.26,44.26,0,0,0-.36,6.71h-1l-.15-3.88c-1-1.75-2.09-2.6-3.43-2.6-2,0-3.37,2.23-3.37,5.53,0,2.41.8,3.83,2.67,4.78l2.87,1.42c2.5,1.22,3.81,4.06,3.81,8.31C354.25,50.12,351.35,54.47,346.83,54.47Z" transform="translate(-2.11 -0.33)"/><path class="cls-2" d="M364.3,53.66c-1.31,0-2.59.05-3.9.14V51.91l.93-.14c1.18-.19,1.21-.28,1.21-4.49V28c0-4.21,0-4.3-1.21-4.49l-.93-.14V21.48c1.31.09,2.59.14,3.9.14a36.87,36.87,0,0,0,3.93-.14v1.89l-.93.14c-1.18.19-1.21.28-1.21,4.49V47.28c0,4.21,0,4.3,1.21,4.49l.93.14V53.8C366.92,53.72,365.61,53.66,364.3,53.66Z" transform="translate(-2.11 -0.33)"/><path class="cls-2" d="M383.33,54.47c-5.77,0-9.07-6-9.07-16.5,0-10.82,3.55-17.16,9.65-17.16,5.69,0,9,6.1,9,16.5C392.9,48.08,389.35,54.47,383.33,54.47ZM387,25.87c-.89-1.61-1.94-2.41-3.28-2.41-1.59,0-2.9.9-3.88,2.69-1.13,2.13-1.76,5.91-1.76,10.73,0,5.44.78,10,2.14,12.48.91,1.7,1.94,2.46,3.32,2.46,3.68,0,5.62-4.63,5.62-13.52C389.12,33,388.34,28.42,387,25.87Z" transform="translate(-2.11 -0.33)"/><path class="cls-2" d="M417.1,23.37c-1.14.19-1.21.47-1.21,4.63V49.46l.07,4.77-.17.19-2.07-.62-3.07-6.57-8.22-18.51V47.28c0,4.21.08,4.44,1.21,4.63l.93.14V53.8c-.95-.09-1.91-.14-2.87-.14s-1.94.05-2.9.14V52.05l.94-.14c1.13-.19,1.2-.47,1.2-4.63V28c0-4.16-.07-4.44-1.2-4.63l-.91-.15V21.48c1,.09,2,.14,3,.14a16.49,16.49,0,0,0,2.11-.14c1.62,4,2.07,5.15,2.6,6.28L414.4,45V28c0-4.16-.08-4.44-1.21-4.63l-.93-.15V21.48c1,.09,1.94.14,2.9.14a19.71,19.71,0,0,0,2.87-.14v1.74Z" transform="translate(-2.11 -0.33)"/><path class="cls-2" d="M429.45,54.47a7.58,7.58,0,0,1-5.24-2.18,72.12,72.12,0,0,0,.37-8.18h1l.18,4.16c.8,2.23,2.42,3.64,4.13,3.64,2.17,0,3.78-2.6,3.78-6.09,0-2.27-.68-3.74-2.09-4.54l-3.53-2C425.66,38,424.37,35,424.37,31c0-6.39,2.47-10.17,6.68-10.17a7.51,7.51,0,0,1,4.66,1.61l.13.57a44.26,44.26,0,0,0-.36,6.71h-1l-.15-3.88c-1-1.75-2.09-2.6-3.43-2.6-2,0-3.37,2.23-3.37,5.53,0,2.41.8,3.83,2.67,4.78l2.87,1.42c2.5,1.22,3.8,4.06,3.8,8.31C436.83,50.12,434,54.47,429.45,54.47Z" transform="translate(-2.11 -0.33)"/><path class="cls-3" d="M196.36,20.12c-7.53-3.34-13.53.52-17.53,14.16-11.32-6-20.33-5.28-17.2,10.9,3.78,12.54,21.19,21.95,21.19,21.95,5.94,3,6.27,1.55,9.77-3.12C201.75,50.18,204.74,28.05,196.36,20.12ZM182.83,43.77c1.28.57,2.77,3.28,3,5.23-.39,1.19-.88,1.52-1.5.85Q182.08,48.8,182.83,43.77ZM194.36,36a73,73,0,0,1-5.77,23.79c-2.16,4.53-2.77,5.24-7.32,1.84A35.15,35.15,0,0,1,170.4,49c-3.84-11-1.67-14.33,7.65-8.49,1.44,8,2.47,17.27,8,13.59,3.49-2.18,4-6.61-3.22-16.85a35.65,35.65,0,0,1,3.66-8C187.21,27.11,195.07,23.53,194.36,36Z" transform="translate(-2.11 -0.33)"/><path class="cls-4" d="M175.17,21.39l2.55.85c.91.26,1.52.13,0-2.83l-2.55-3.26c-1.71-.73-3.14-.66-4.11.71A16.31,16.31,0,0,0,175.17,21.39Z" transform="translate(-2.11 -0.33)"/><path class="cls-4" d="M186.93,10.06s2.52,2.38,2.66,2.7c1.31,1.29,1.77.54,1.67-1.35l-.56-7a7.73,7.73,0,0,0-3.77-3Z" transform="translate(-2.11 -0.33)"/><path class="cls-4" d="M204.13,38.53A21.69,21.69,0,0,1,213,34.14a12.13,12.13,0,0,1,0,5.09,26.57,26.57,0,0,0-8.87,3.26A5,5,0,0,1,204.13,38.53Z" transform="translate(-2.11 -0.33)"/><path class="cls-4" d="M201.13,19.2l1.44,3c2.66-1.35,5.1-3.89,7.22-8.21-.35-2.19-2-3.26-4.33-3.68A32.3,32.3,0,0,0,201.13,19.2Z" transform="translate(-2.11 -0.33)"/><ellipse class="cls-5" cx="198.82" cy="69.89" rx="3.14" ry="4.01"/><text class="cls-6" transform="translate(197.39 71.89) scale(0.77 1)">R</text></svg>