<svg id="Layer_1" data-name="Layer 1" xmlns="http://www.w3.org/2000/svg" viewBox="0 0 336.87 149.46"><defs><style>.cls-1{fill:#22235e;}</style></defs><path class="cls-1" d="M190.84,96.8l0,1.16a2.48,2.48,0,0,1-.67,1.86,2.42,2.42,0,0,1-1.81.67,4.73,4.73,0,0,1-2.55-.95,12.52,12.52,0,0,1-3-3.2,30,30,0,0,1-3.13-6.13,56.42,56.42,0,0,1-2.57-8.28,79.88,79.88,0,0,1-2-18.25,74.35,74.35,0,0,1,.53-9l-.46.63q-6.54,9.34-11.6,28.05a112,112,0,0,0-3.3,16.42c-.1.71-.67,1.06-1.73,1.06a3.78,3.78,0,0,1-3.62-2.57,6.73,6.73,0,0,1-.39-2.57,27.84,27.84,0,0,1,.62-4.83q.62-3.18,1.71-7c.72-2.57,1.6-5.27,2.63-8.12s2.16-5.67,3.39-8.46,2.56-5.45,4-8a53.77,53.77,0,0,1,4.37-6.71q5-6.4,9.36-6.61c1.59-.1,2.6.15,3,.74s.51,1.78.14,3.37a33.78,33.78,0,0,0-1,8.16c0,2.69.06,5,.19,6.82s.31,3.71.55,5.57.52,3.71.86,5.54.71,3.57,1.11,5.24A55.37,55.37,0,0,0,188.23,90c.75-1.94,1.57-3.89,2.47-5.83l5.23-11.53q4.37-9.78,4.36-15.68c0-3.71-.76-5.94-2.28-6.72a1.14,1.14,0,0,1-.69-.91,2,2,0,0,1,.25-1.34,4,4,0,0,1,1-1.16,4.77,4.77,0,0,1,3.11-1.16,7,7,0,0,1,5.53,2.64,8.45,8.45,0,0,1,1.8,5.39,20.8,20.8,0,0,1-1.08,6.44,57.86,57.86,0,0,1-2.76,6.92q-1.68,3.62-3.76,7.33l-4,7.39a83.3,83.3,0,0,0-6.26,13.36A5.12,5.12,0,0,0,190.84,96.8Z" transform="translate(-64.44 -45.68)"/><path class="cls-1" d="M210,98a9.78,9.78,0,0,1-2.32-3.57,14.51,14.51,0,0,1-.88-5.11,23.79,23.79,0,0,1,.72-6A29.43,29.43,0,0,1,213,72.26a25.29,25.29,0,0,1,4.3-4.29A17.37,17.37,0,0,1,227.93,64q7.23,0,9.8,6.37,1.83,4.6.22,11.14a28.93,28.93,0,0,1-5.42,11,21.84,21.84,0,0,1-9.21,7.14,14.29,14.29,0,0,1-5.26,1,14.51,14.51,0,0,1-4.6-.67A9.1,9.1,0,0,1,210,98Zm6.72-17A33.06,33.06,0,0,0,215,86.32a22,22,0,0,0-.58,5.19,8.66,8.66,0,0,0,.75,3.83,2.44,2.44,0,0,0,2.34,1.39,5.44,5.44,0,0,0,3.18-1.11,15.67,15.67,0,0,0,3-2.93,28,28,0,0,0,2.78-4.22,39,39,0,0,0,2.28-5,27.51,27.51,0,0,0,2.08-10q0-3.87-1.58-4.92a3.21,3.21,0,0,0-1.78-.42,4.77,4.77,0,0,0-2.62,1,15.85,15.85,0,0,0-3,2.8A29.21,29.21,0,0,0,219.1,76,38.61,38.61,0,0,0,216.68,81Z" transform="translate(-64.44 -45.68)"/><path class="cls-1" d="M255.37,96.39q-4.8,4.24-7.53,4.24a3.83,3.83,0,0,1-3.78-2.81,5,5,0,0,1-.38-1.83,13.84,13.84,0,0,1,.72-4.43c.48-1.43.95-2.76,1.42-4l3.09-8a53.19,53.19,0,0,0,2.18-6.82,3.62,3.62,0,0,0-.1-2.62,6.13,6.13,0,0,0-1.14-1.19c-.44-.34-.85-.65-1.23-.92a1.2,1.2,0,0,1-.58-1,1.75,1.75,0,0,1,.5-1.17,4.51,4.51,0,0,1,1.36-1,8,8,0,0,1,3.5-.81,8.92,8.92,0,0,1,2.84.37,5.64,5.64,0,0,1,1.71.93,3.63,3.63,0,0,1,1.3,2.8,14.48,14.48,0,0,1-.54,3.67c-.37,1.36-.83,2.8-1.38,4.33s-1.16,3.1-1.84,4.74l-1.94,4.85a50.8,50.8,0,0,0-2.77,8.79q3.3-1.12,8.75-8.08A90.74,90.74,0,0,0,270,69a2.91,2.91,0,0,1,1.3-1.59,6.86,6.86,0,0,1,3.2-.52c2,.07,3.1.7,3.17,1.89a4.91,4.91,0,0,1-.58,2.41c-.44.88-.79,1.61-1.08,2.2l-1.37,2.81q-4.11,8.34-4.11,13.54,0,3.62,2,5a2.79,2.79,0,0,0,1.72.43,6.11,6.11,0,0,0,2.74-.83,12.37,12.37,0,0,0,3-2.27,21.43,21.43,0,0,0,2.69-3.35,26.19,26.19,0,0,0,2.16-4.1,21.46,21.46,0,0,0,1.93-8.16q0-6.07-2.28-9c-.52-.61-.37-1.33.45-2.15a5.61,5.61,0,0,1,4.08-1.3c2.28,0,3.82,1.28,4.64,3.84a14.11,14.11,0,0,1,.5,4.32,23.4,23.4,0,0,1-1,6.42,35,35,0,0,1-2.76,6.78,39.12,39.12,0,0,1-4,6.07,34,34,0,0,1-4.77,4.88q-5.34,4.43-9.91,4.43-7.85,0-7.84-10.12a24.34,24.34,0,0,1,.42-4.54A55.46,55.46,0,0,1,255.37,96.39Z" transform="translate(-64.44 -45.68)"/><path class="cls-1" d="M76.78,169.24c.61,0,.92.4.92,1.19a5.12,5.12,0,0,1-1.45,3.27,7.06,7.06,0,0,1-5.66,2.46q-4.08,0-5.59-3.3a6.46,6.46,0,0,1-.56-2.81,13.37,13.37,0,0,1,.58-3.68c.39-1.34.87-2.76,1.44-4.25s1.2-3,1.88-4.52l1.87-4.43q2-4.95,2-6.54a4.33,4.33,0,0,0-.34-2.09,2.93,2.93,0,0,0-.72-.79l-.7-.49a1,1,0,0,1-.35-.86,1.78,1.78,0,0,1,.47-1.18,4.38,4.38,0,0,1,1.25-1,8.09,8.09,0,0,1,3.69-.8q5.17,0,5.17,2.7a19.57,19.57,0,0,1-1.65,7.23c-1.11,2.7-2,4.89-2.82,6.55l-2.11,4.86c-1.54,3.56-2.32,6.12-2.32,7.69A1.37,1.37,0,0,0,73.37,170a5.27,5.27,0,0,0,2.29-.39A3.05,3.05,0,0,1,76.78,169.24ZM84,131.18a6.52,6.52,0,0,1-1.76,1.34,5.91,5.91,0,0,1-2.07.63,3.8,3.8,0,0,1-2.06-.33,4.91,4.91,0,0,1-1.67-1.3A5.47,5.47,0,0,1,74.92,128a4.94,4.94,0,0,1,.58-2.68A4.63,4.63,0,0,1,77,123.82a5.87,5.87,0,0,1,3.18-1.09,10,10,0,0,1,2.32.21,4.62,4.62,0,0,1,1.53.7,3.36,3.36,0,0,1,1.72,2.83,7.23,7.23,0,0,1-.47,2.78A6.75,6.75,0,0,1,84,131.18Z" transform="translate(-64.44 -45.68)"/><path class="cls-1" d="M83.92,169.62a4.48,4.48,0,0,1,.47-2A5.35,5.35,0,0,1,85.57,166a4.49,4.49,0,0,1,3.09-1.37,1.26,1.26,0,0,1,1.41,1.44q0,3.66,2.43,5.1a3.47,3.47,0,0,0,1.82.52,5.4,5.4,0,0,0,1.62-.21,3.67,3.67,0,0,0,1.23-.66,3,3,0,0,0,1.27-2.43,5.25,5.25,0,0,0-.64-2.58,19.47,19.47,0,0,0-1.58-2.48l-2-2.82Q90,154.93,90,150.18a9.68,9.68,0,0,1,3.34-7.13,13.51,13.51,0,0,1,9.74-3.62c3.47,0,6.17.85,8.12,2.56a6.19,6.19,0,0,1,2.39,4.75,5.33,5.33,0,0,1-2.11,4.43,4.58,4.58,0,0,1-3.8,1.09,2,2,0,0,1-1.3-.86,1.75,1.75,0,0,1-.17-1.57,6.14,6.14,0,0,0,.28-1.83,4.41,4.41,0,0,0-.35-1.75,4.1,4.1,0,0,0-1-1.37,3.73,3.73,0,0,0-2.59-1.17,7,7,0,0,0-2.23.3,4.81,4.81,0,0,0-1.55.87A4.07,4.07,0,0,0,97.45,148a7.25,7.25,0,0,0,.64,3.18,18.48,18.48,0,0,0,1.56,2.67c.62.89,1.3,1.79,2,2.71a26.45,26.45,0,0,1,2,2.88,12.31,12.31,0,0,1,2.21,6.24,8.39,8.39,0,0,1-1.12,4.5,11.06,11.06,0,0,1-2.92,3.11,14,14,0,0,1-8.58,2.85A10.94,10.94,0,0,1,86.1,174,5.48,5.48,0,0,1,83.92,169.62Z" transform="translate(-64.44 -45.68)"/><path class="cls-1" d="M141.47,173.42a9.65,9.65,0,0,1-2.32-3.57,14.47,14.47,0,0,1-.88-5.11,23.79,23.79,0,0,1,.72-6,29.14,29.14,0,0,1,2.14-5.83,29.59,29.59,0,0,1,3.34-5.28,25.71,25.71,0,0,1,4.31-4.29,17.31,17.31,0,0,1,10.65-3.93q7.24,0,9.81,6.36,1.83,4.61.21,11.14A28.91,28.91,0,0,1,164,168a21.84,21.84,0,0,1-9.21,7.14,14.33,14.33,0,0,1-5.26,1,14.76,14.76,0,0,1-4.6-.66A9.17,9.17,0,0,1,141.47,173.42Zm6.71-17a34.76,34.76,0,0,0-1.67,5.34,22.49,22.49,0,0,0-.58,5.19,8.76,8.76,0,0,0,.76,3.83,2.44,2.44,0,0,0,2.34,1.39,5.46,5.46,0,0,0,3.18-1.11,15.1,15.1,0,0,0,3-2.93,28.83,28.83,0,0,0,2.78-4.22,40.31,40.31,0,0,0,2.28-5,27.81,27.81,0,0,0,2.08-10.06q0-3.87-1.59-4.92a3.17,3.17,0,0,0-1.77-.42,4.69,4.69,0,0,0-2.62,1,15.77,15.77,0,0,0-2.95,2.79,28.4,28.4,0,0,0-2.85,4.11A40.72,40.72,0,0,0,148.18,156.37Z" transform="translate(-64.44 -45.68)"/><path class="cls-1" d="M200.57,146.07c-.73,0-1.76.7-3.1,2.09S195,150.83,194,152l-3,3.58-5.76,7.35q-2,3.87-3.2,6.43l-1.9,4.08a10.13,10.13,0,0,1-1.28,2.13,1.89,1.89,0,0,1-1.48.61,4.94,4.94,0,0,1-1.79-.33,5.35,5.35,0,0,1-1.5-.86,3.21,3.21,0,0,1-1.33-2.46,6.31,6.31,0,0,1,.77-2.08l1.34-2.84q.63-1.28,1.47-3.24l2-4.81q4.16-10.38,4.15-13.4a2.77,2.77,0,0,0-1.05-2.39l-.71-.49a1,1,0,0,1-.35-.86,1.79,1.79,0,0,1,.48-1.18,4.33,4.33,0,0,1,1.24-1,7.07,7.07,0,0,1,3.19-.8,6.74,6.74,0,0,1,2.47.35,4.24,4.24,0,0,1,1.48.95,3.53,3.53,0,0,1,1.3,2.56,11.31,11.31,0,0,1-.33,2.69,25.26,25.26,0,0,1-.85,2.74c-.34.93-.69,1.84-1.07,2.73s-.71,1.66-1,2.32l-.7,1.51c-.19.38-.24.49-.14.35q3.9-5.41,5.13-7l2.46-2.95a23.47,23.47,0,0,1,4.26-4.18q3.12-2.11,4.92-2.11a8.86,8.86,0,0,1,3,.45,6.58,6.58,0,0,1,2.15,1.3,6,6,0,0,1,1.93,4.57,14.85,14.85,0,0,1-1.27,5.8q-1.26,3-2.19,4.91c-.62,1.25-1.22,2.52-1.78,3.81q-2.64,5.88-2.64,8.55c0,.79.64,1.19,1.9,1.19a5.74,5.74,0,0,0,2.69-.63,4.92,4.92,0,0,1,1.57-.63.65.65,0,0,1,.74.73q0,3.14-3.2,5.24a7.25,7.25,0,0,1-3.94,1.44,9.57,9.57,0,0,1-3-.38,5.67,5.67,0,0,1-2.09-1.23,6.64,6.64,0,0,1-2.08-5.21q0-4.08,2.57-10.19,1.86-4.18,2.63-5.73l1.2-2.5a8.82,8.82,0,0,0,1.09-3.55C202.5,146.5,201.86,146.07,200.57,146.07Z" transform="translate(-64.44 -45.68)"/><path class="cls-1" d="M236,169.62a4.48,4.48,0,0,1,.47-2,5.35,5.35,0,0,1,1.18-1.56,4.51,4.51,0,0,1,3.1-1.37,1.26,1.26,0,0,1,1.4,1.44q0,3.66,2.43,5.1a3.48,3.48,0,0,0,1.83.52,5.38,5.38,0,0,0,1.61-.21,3.67,3.67,0,0,0,1.23-.66,3,3,0,0,0,1.27-2.43,5.35,5.35,0,0,0-.63-2.58,20.8,20.8,0,0,0-1.59-2.48l-2-2.82q-4.22-5.62-4.22-10.37a9.68,9.68,0,0,1,3.34-7.13,13.51,13.51,0,0,1,9.74-3.62q5.21,0,8.12,2.56a6.19,6.19,0,0,1,2.39,4.75,5.33,5.33,0,0,1-2.11,4.43,4.57,4.57,0,0,1-3.8,1.09,2,2,0,0,1-1.3-.86,1.75,1.75,0,0,1-.17-1.57,5.84,5.84,0,0,0,.28-1.83,4.41,4.41,0,0,0-.35-1.75,4.1,4.1,0,0,0-.95-1.37,3.73,3.73,0,0,0-2.59-1.17,7,7,0,0,0-2.23.3,4.66,4.66,0,0,0-1.54.87,4,4,0,0,0-1.38,3.11,7.39,7.39,0,0,0,.64,3.18,18.48,18.48,0,0,0,1.56,2.67c.62.89,1.3,1.79,2,2.71a26.45,26.45,0,0,1,2,2.88,12.31,12.31,0,0,1,2.21,6.24,8.39,8.39,0,0,1-1.12,4.5,11.06,11.06,0,0,1-2.92,3.11,14,14,0,0,1-8.58,2.85,10.94,10.94,0,0,1-7.17-2.18A5.51,5.51,0,0,1,236,169.62Z" transform="translate(-64.44 -45.68)"/><path class="cls-1" d="M288.67,166.6c.68,0,1,.46,1,1.37a4.06,4.06,0,0,1-.71,2.25,9.81,9.81,0,0,1-3.79,3.87,12,12,0,0,1-6.51,2.07q-5.65,0-7.17-5.06-1.78-6,5.38-25.49c-2.69-.23-4.16-.7-4.39-1.4a2.17,2.17,0,0,1-.11-.69,1.64,1.64,0,0,1,.33-.86,5.07,5.07,0,0,1,.87-.95,3.89,3.89,0,0,1,2.49-1h2.78q3.79-8.9,5.41-10.12A2.85,2.85,0,0,1,286,130a4.47,4.47,0,0,1,1.58.25,3.42,3.42,0,0,1,1.12.7,3.19,3.19,0,0,1,1.13,2.36,4,4,0,0,1-.42,1.62l-2.61,5.66h.85c1.45,0,2.62,0,3.51,0l2,0c.44,0,1,0,1.67,0s1,.25,1,.74q0,4.64-11,4.64h-.28l-2.39,6.19q-4.05,11-4,15.36a2.93,2.93,0,0,0,.56,1.92,2.65,2.65,0,0,0,2.11.68,7.07,7.07,0,0,0,2.81-.53,12.81,12.81,0,0,0,2.22-1.17c.63-.44,1.17-.83,1.63-1.18A2.1,2.1,0,0,1,288.67,166.6Z" transform="translate(-64.44 -45.68)"/><path class="cls-1" d="M321.19,166.46q0,3.24,2.28,3.24a6.06,6.06,0,0,0,2.62-.5,4.53,4.53,0,0,1,1.39-.49.67.67,0,0,1,.74.77c0,2-1.06,3.75-3.17,5.21a7.39,7.39,0,0,1-6.82,1.12,5.72,5.72,0,0,1-3.37-3.48,7,7,0,0,1-.53-2.49,23.27,23.27,0,0,1,.35-3.87q-3.27,6.67-8.12,9.21a9,9,0,0,1-4.11,1,7.6,7.6,0,0,1-3.78-.89,8.34,8.34,0,0,1-2.72-2.48,13.19,13.19,0,0,1-2.08-8.3,26,26,0,0,1,3.69-12.27,28.65,28.65,0,0,1,8.09-9.17q4.89-3.63,9.14-3.62a7.91,7.91,0,0,1,6.85,3.9q2.43-3.9,4.29-3.9a5.17,5.17,0,0,1,3,.73c1.29.94,1.74,1.76,1.37,2.46q-8.82,18.07-9.07,22.5A11.54,11.54,0,0,0,321.19,166.46Zm-19.51.14q0,4.22,2.7,4.22c1.39,0,3.08-1.17,5.1-3.52a48.07,48.07,0,0,0,7.84-13.92,48.91,48.91,0,0,0,1.83-5.48,4.12,4.12,0,0,0-2-3.52,3.62,3.62,0,0,0-1.88-.38,6.23,6.23,0,0,0-2.91.91,13.83,13.83,0,0,0-3.24,2.5,22,22,0,0,0-2.92,3.74,30.27,30.27,0,0,0-2.37,4.69A29.05,29.05,0,0,0,301.68,166.6Z" transform="translate(-64.44 -45.68)"/><path class="cls-1" d="M353.64,168.15q-5.36,8-11.85,8-5.87,0-7.91-6.25a17.1,17.1,0,0,1-.7-5.28,22.72,22.72,0,0,1,.89-6.27,28.09,28.09,0,0,1,2.45-6,28.72,28.72,0,0,1,3.63-5.19,27.25,27.25,0,0,1,4.49-4.09,16.63,16.63,0,0,1,9.91-3.69,7.21,7.21,0,0,1,7,4.6,11.3,11.3,0,0,0,.78-.93,7.32,7.32,0,0,1,.77-.9,2.49,2.49,0,0,1,1.6-.91,4.46,4.46,0,0,1,1.44.25,7.05,7.05,0,0,1,1.46.66c1.15.68,1.58,1.32,1.3,1.9a71,71,0,0,0-3.23,8.23l-5.21,16.59q-6.15,18.89-15.61,24.4a11.94,11.94,0,0,1-4.32,1.71,7.84,7.84,0,0,1-2.64,0,5.5,5.5,0,0,1-1.44-.59c-.91-.59-1.37-1.12-1.37-1.59,0-.82.54-1.32,1.63-1.51a10.5,10.5,0,0,0,3.43-1.32,19.67,19.67,0,0,0,3.41-2.51Q350.23,181.37,353.64,168.15ZM343.11,156a34.67,34.67,0,0,0-1.46,5.18,23.44,23.44,0,0,0-.53,4.35,22.94,22.94,0,0,0,.11,2.56,5,5,0,0,0,.42,1.55,2.24,2.24,0,0,0,2.07,1.48,4.61,4.61,0,0,0,2.71-1,17.25,17.25,0,0,0,2.81-2.65,34.32,34.32,0,0,0,3-4,54.28,54.28,0,0,0,2.81-4.92,48.43,48.43,0,0,0,4.15-11.14,3.93,3.93,0,0,0-1.2-2,5.59,5.59,0,0,0-3.62-1.93,6,6,0,0,0-3.23,1,13.24,13.24,0,0,0-3.08,2.71,24.65,24.65,0,0,0-2.73,4A33.8,33.8,0,0,0,343.11,156Z" transform="translate(-64.44 -45.68)"/><path class="cls-1" d="M371.32,163.51a22.7,22.7,0,0,1,1-5.86,28.36,28.36,0,0,1,2.36-5.41,30.88,30.88,0,0,1,3.46-5,27.11,27.11,0,0,1,4.3-4.09,16.87,16.87,0,0,1,10.16-3.76q6,0,8,4.95a10,10,0,0,1,.67,4,11,11,0,0,1-.88,4.26,12.29,12.29,0,0,1-2.34,3.55,17,17,0,0,1-3.55,2.86,24.08,24.08,0,0,1-4.48,2.15A33.35,33.35,0,0,1,379.37,163a6.64,6.64,0,0,0-.17,1.47,8.81,8.81,0,0,0,.21,2.2,6.25,6.25,0,0,0,.84,2.16,4,4,0,0,0,3.66,2.11,15,15,0,0,0,7.94-2.39,11.05,11.05,0,0,0,2.23-1.67,2.4,2.4,0,0,1,1.5-.86,1.35,1.35,0,0,1,1.11.75,3.23,3.23,0,0,1,.47,1.71,5.15,5.15,0,0,1-1.05,3.23q-4.44,4.44-13.19,4.43a11.32,11.32,0,0,1-8.3-3.09Q371.11,169.56,371.32,163.51Zm20.53-19.41q-3.69,0-7.1,5.06a38.28,38.28,0,0,0-4.64,10.34,17.11,17.11,0,0,0,10.19-4.64q4-3.8,4-7.28T391.85,144.1Z" transform="translate(-64.44 -45.68)"/></svg>