<svg xmlns="http://www.w3.org/2000/svg" viewBox="0 0 538.41 545.66"><defs><style>.cls-1{fill:none;stroke:#231f20;stroke-miterlimit:10;stroke-width:5px;}.cls-2{fill:#f9ed32;opacity:0.44;}</style></defs><g id="Layer_2" data-name="Layer 2"><path class="cls-1" d="M89.18,581.85c-28.84-7.15-37.37,36-18.69,52.74Q293.57,711,461.7,615.91c20.33-23.07,9.27-56.59-14.28-47.25C310.36,623.17,192.87,622.11,89.18,581.85Z" transform="translate(-47.54 -125.46)"/><path class="cls-2" d="M91.28,577.1c97.86,47.08,214,46.4,351.45-10L416.58,326.48l-8.72,4,3.22,41.17-13.29-.79v20.8H386.16l-6.87-7.07-2.09,7.07-13.51,5.86-19-10.14L341.88,396l-6.09,21.51-17.57,2.58L306,411.2l-9.77-19.54L298,368.29l8-15-16.48-17.61-6.94-28.54H256.69l-13.29-12-20.71,14.77H203.18l-12.91-9.4-13.7,9.4-15.91-5.83-11,16.21-15,6.17L134.23,339l3.56,10.21-6,8.55,5,8.4-4,10.3-4.31,15.21-3.28,13.85-4.16,21-5.5,16.64-4.43,7.94,6.19,16.86-6.19,10.61L100.9,491.23l-9.62.67Z" transform="translate(-47.54 -125.46)"/><path class="cls-1" d="M417.25,320.35c66.76-45.94,114-47,125.77,32.92,3,85.77-43.24,112.41-114.28,109.31C425,416.61,421.18,369.08,417.25,320.35Z" transform="translate(-47.54 -125.46)"/><path class="cls-1" d="M416.58,264.28c103.44-42.06,165-23.88,166,81.3,7.54,91.68-33.21,151.37-146.89,162.77Z" transform="translate(-47.54 -125.46)"/><path class="cls-1" d="M417.25,272.75c1.19,116.49,9.83,217.34,29.82,294.31q-177.94,84.5-356.13,15.47l5.54-90.63" transform="translate(-47.54 -125.46)"/><path class="cls-1" d="M129.21,326.48c7,66.57,5.36,140.13-1.57,218,41.23,26,66.12,20.6,66-32.79-3.67-52.17-3.76-113.27-.79-182" transform="translate(-47.54 -125.46)"/><path class="cls-1" d="M235.72,326.48c4.95,81.84,4.65,157.83-1.49,227.28,22.28,16.66,43.54,17.83,63.74,2.81v-150" transform="translate(-47.54 -125.46)"/><path class="cls-1" d="M335.79,417.51l8.33,139.06c26.1,2.2,47.44-5.29,63.74-23.08-7.81-54.07-13.2-104.45-10.07-141.83" transform="translate(-47.54 -125.46)"/></g><g id="Layer_3" data-name="Layer 3"><path class="cls-1" d="M111.15,478.55c7.44-5.42,9.06-13.76,0-27.47a68.07,68.07,0,0,0,11-41.76c4.42-4.26,6.27-8.62,0-13.32,9.64-5.05,12.61-10.76,5.5-17.45,12.51-4.17,16.12-10.06,0-19.78,10.33-1.52,13.3-7.64,6.59-19.78-2.76-8.24-2.74-14.66,7.69-14.29,6.37.15,11.85-8,16.47-24.17,10,17.45,20.74,15,31.88,0,20.24,18.78,37.74,17.55,51.65-9.89,3.63,14.72,15.13,22.13,40.66,16.48C282,327,290.54,342,306,353.27c-39.92,54.66,46.35,105.27,34.82,31.32,18.84,14.08,34.82,21.47,38.47,0,11.67,17.8,29.46,7.2,18.5-13.73,19.81,10.15,18.32-8.9,6.77-41.76,12.85-10.27,13.67-25.33,0-46.15,7.25-3.44,16.62-14.83,33-31.87,33.25,17.38,38.46-62.44-8.79-40.66q-.4-38.61-30.95-45.06c-23-19.09-41.41-18.07-55.87,0-14-30.51-39.64-40.42-75.82-31.87C240.65,120.28,219,131.25,200.16,161c-25.29-26.08-72.13-23.07-81.31,4.39C95.3,160,82.55,166.64,78.19,182.6c-25.39-7.26-38.88,37-17.59,52-13.48,20-14.66,37.18,0,50.55-4.67,22.76-3.52,39,8.8,42.86-5.55,38,9.64,62.17,31.86,59.34l-2.19,53.85,1.09,20.88C71.49,485.81,101.7,506.3,111.15,478.55Z" transform="translate(-47.54 -125.46)"/><path class="cls-1" d="M273.79,222.51c26.26-24,47.63-33.22,54.95,0,24.63-8.87,29.3-3.4,23.07,9.89,49.14-2.26,48.75,12.38,37.37,30.76,11.79,4.08,11.17,13.51,0,27.48" transform="translate(-47.54 -125.46)"/><path class="cls-1" d="M90.27,270.86c-.56-18.65,7.15-28.12,22-29.67,3.53-8.67,13.74-8.79,24.18-11,5.49-17,7.87-15.85,17.58-6.6,12.25-13.87,26.6-25,30.77-17.58,14.84-24.64,28.9-31.75,41.76-12.09" transform="translate(-47.54 -125.46)"/></g></svg>